<svg width="720" height="804" viewBox="0 0 720 804" fill="none" xmlns="http://www.w3.org/2000/svg">
<path d="M933.598 728.856H-154V729.413H933.598V728.856Z" fill="#EBEBEB"/>
<path d="M566.469 770.731H547.566V771.287H566.469V770.731Z" fill="#EBEBEB"/>
<path d="M750.403 744.016H708.661V744.573H750.403V744.016Z" fill="#EBEBEB"/>
<path d="M54.0576 747.757H-39.8892V748.313H54.0576V747.757Z" fill="#EBEBEB"/>
<path d="M87.2076 747.757H73.4386V748.313H87.2076V747.757Z" fill="#EBEBEB"/>
<path d="M335.745 757.151H131.973V757.708H335.745V757.151Z" fill="#EBEBEB"/>
<path d="M361.522 629.568H-58.487C-61.7773 629.562 -64.9309 628.22 -67.2555 625.837C-69.5801 623.454 -70.8857 620.224 -70.8857 616.856V12.6003C-70.857 9.25212 -69.5388 6.05075 -67.2173 3.69152C-64.8958 1.33228 -61.7586 0.00573554 -58.487 0H361.522C364.816 0 367.975 1.33925 370.304 3.72313C372.633 6.10702 373.942 9.34025 373.942 12.7116V616.856C373.942 620.228 372.633 623.461 370.304 625.845C367.975 628.229 364.816 629.568 361.522 629.568ZM-58.487 0.445241C-61.6331 0.451138 -64.6484 1.73435 -66.871 4.01322C-69.0936 6.29209 -70.3419 9.3804 -70.3419 12.6003V616.856C-70.3419 620.076 -69.0936 623.164 -66.871 625.443C-64.6484 627.722 -61.6331 629.005 -58.487 629.011H361.522C364.67 629.005 367.687 627.723 369.913 625.445C372.139 623.166 373.392 620.078 373.398 616.856V12.6003C373.392 9.37836 372.139 6.2901 369.913 4.01186C367.687 1.73363 364.67 0.451125 361.522 0.445241H-58.487Z" fill="#EBEBEB"/>
<path d="M832.038 629.568H412.008C408.715 629.562 405.56 628.221 403.232 625.838C400.903 623.456 399.593 620.226 399.587 616.856V12.6003C399.622 9.25009 400.945 6.04874 403.27 3.69012C405.595 1.33151 408.734 0.00567299 412.008 0H832.038C835.306 0.0115862 838.438 1.34072 840.754 3.69933C843.071 6.05794 844.386 9.25597 844.415 12.6003V616.856C844.415 620.22 843.112 623.446 840.792 625.829C838.473 628.212 835.325 629.556 832.038 629.568ZM412.008 0.445241C408.86 0.451125 405.842 1.73363 403.616 4.01186C401.39 6.2901 400.137 9.37836 400.131 12.6003V616.856C400.137 620.078 401.39 623.166 403.616 625.445C405.842 627.723 408.86 629.005 412.008 629.011H832.038C835.186 629.005 838.204 627.723 840.43 625.445C842.656 623.166 843.909 620.078 843.915 616.856V12.6003C843.909 9.37836 842.656 6.2901 840.43 4.01186C838.204 1.73363 835.186 0.451125 832.038 0.445241H412.008Z" fill="#EBEBEB"/>
<path d="M779.79 718.772L778.767 565.164L756.472 545.885L746.161 495.106L732.806 479.166L725.627 443.547L713.446 459.732L706.551 556.972L699.656 545.841L694.174 507.996L683.168 520.106L669.399 523.623L661.372 603.945L456.904 628.922L414.379 591.789L396.977 519.082L379.032 500.137L373.572 465.097L356.41 471.174V508.151L341.945 516.744L335.702 591.789L317.387 617.725L312.188 571.353C312.188 571.353 298.158 559.866 295.047 557.105C291.937 554.345 274.253 503.899 276.928 500.137C279.604 496.375 273.1 463.65 273.1 463.65L255.415 474.469V528.677L236.97 533.463L234.185 557.105L187.114 564.875L179.545 528.677H158.554L152.028 549.314L132.93 549.18L102.717 571.442L77.8759 521.531L52.6001 533.552L34.3937 490.32L15.2737 515.654L8.18259 597.867L-1.7363 598.847L-6.28245 581.037L-24.6846 598.847V718.683L779.79 718.772Z" fill="#F5F5F5"/>
<path d="M439.937 308.64H327.11C322.437 308.421 318.031 306.35 314.824 302.866C311.617 299.381 309.86 294.757 309.925 289.97C309.99 285.183 311.872 280.61 315.172 277.219C318.473 273.827 322.934 271.882 327.61 271.796C329.364 271.793 331.109 272.055 332.787 272.575C332.517 270.703 332.379 268.813 332.374 266.921C332.374 256.565 336.394 246.633 343.549 239.31C350.704 231.987 360.408 227.873 370.527 227.873C372.884 227.87 375.236 228.093 377.553 228.541C381.305 222.205 386.972 217.292 393.695 214.545C400.419 211.798 407.833 211.367 414.818 213.316C421.802 215.265 427.976 219.489 432.406 225.349C436.836 231.209 439.282 238.386 439.372 245.794H439.937C447.944 246.012 455.552 249.421 461.14 255.294C466.728 261.168 469.855 269.041 469.855 277.239C469.855 285.437 466.728 293.311 461.14 299.184C455.552 305.058 447.944 308.466 439.937 308.684V308.64Z" fill="#F5F5F5"/>
<path d="M507.477 124.667H465.039C463.245 124.643 461.533 123.891 460.281 122.576C459.029 121.261 458.338 119.491 458.361 117.655C458.384 115.818 459.119 114.067 460.404 112.785C461.689 111.503 463.419 110.797 465.213 110.82C465.876 110.811 466.537 110.909 467.171 111.11C467.059 110.373 467.008 109.628 467.018 108.883C467.018 106.955 467.39 105.045 468.112 103.264C468.833 101.483 469.891 99.8644 471.224 98.5018C472.558 97.1392 474.141 96.059 475.882 95.3231C477.624 94.5871 479.49 94.2098 481.375 94.2127C482.257 94.2149 483.138 94.2968 484.007 94.4576C485.42 92.0633 487.56 90.2078 490.1 89.1738C492.639 88.1399 495.44 87.9843 498.074 88.7308C500.708 89.4773 503.031 91.0849 504.69 93.3085C506.348 95.5321 507.251 98.2498 507.259 101.047H507.477C510.456 101.179 513.271 102.484 515.334 104.688C517.396 106.893 518.547 109.827 518.547 112.879C518.547 115.932 517.396 118.866 515.334 121.07C513.271 123.275 510.456 124.579 507.477 124.712V124.667Z" fill="#F5F5F5"/>
<path d="M120.814 138.18H78.3763C77.4879 138.167 76.6107 137.975 75.7949 137.615C74.9791 137.255 74.2405 136.734 73.6215 136.081C72.3712 134.764 71.6833 132.993 71.7093 131.156C71.7352 129.32 72.4729 127.57 73.7599 126.29C75.0469 125.011 76.7779 124.307 78.572 124.333C79.2281 124.326 79.8813 124.424 80.5079 124.623C80.4086 123.885 80.3577 123.141 80.3557 122.396C80.3614 118.501 81.8758 114.768 84.5669 112.013C87.258 109.259 90.9062 107.709 94.712 107.703C95.5958 107.702 96.4776 107.791 97.344 107.971C98.7525 105.584 100.883 103.732 103.412 102.696C105.941 101.66 108.731 101.495 111.359 102.228C113.988 102.96 116.312 104.549 117.979 106.754C119.645 108.96 120.565 111.661 120.597 114.449H120.814C123.794 114.581 126.608 115.886 128.671 118.09C130.733 120.295 131.885 123.229 131.885 126.281C131.885 129.333 130.733 132.268 128.671 134.472C126.608 136.677 123.794 137.981 120.814 138.113V138.18Z" fill="#F5F5F5"/>
<path d="M120.814 267.322H78.3763C77.4879 267.308 76.6107 267.116 75.7949 266.756C74.9791 266.396 74.2405 265.875 73.6215 265.223C72.3712 263.906 71.6833 262.134 71.7093 260.298C71.7352 258.462 72.4729 256.711 73.7599 255.432C75.0469 254.152 76.7779 253.448 78.572 253.475C79.2273 253.478 79.8789 253.576 80.5079 253.764C80.4086 253.026 80.3577 252.283 80.3557 251.538C80.3614 247.645 81.8765 243.913 84.5682 241.163C87.2599 238.412 90.9082 236.867 94.712 236.867C95.5946 236.869 96.4754 236.951 97.344 237.112C98.7535 234.724 100.885 232.872 103.417 231.836C105.948 230.8 108.74 230.637 111.37 231.372C113.999 232.108 116.323 233.7 117.988 235.909C119.653 238.118 120.569 240.823 120.597 243.613H120.814C123.794 243.745 126.608 245.049 128.671 247.254C130.733 249.458 131.885 252.393 131.885 255.445C131.885 258.497 130.733 261.431 128.671 263.636C126.608 265.84 123.794 267.145 120.814 267.277V267.322Z" fill="#F5F5F5"/>
<path d="M746.053 300.536H684.669C682.073 300.498 679.598 299.406 677.789 297.5C675.979 295.594 674.984 293.031 675.022 290.374C675.059 287.717 676.126 285.184 677.989 283.332C679.851 281.481 682.355 280.462 684.951 280.501C685.902 280.493 686.849 280.635 687.757 280.924C687.618 279.898 687.546 278.864 687.54 277.829C687.54 272.197 689.726 266.795 693.618 262.812C697.509 258.829 702.788 256.591 708.291 256.591C709.576 256.592 710.858 256.718 712.12 256.97C714.166 253.534 717.248 250.871 720.902 249.383C724.555 247.896 728.582 247.663 732.376 248.72C736.17 249.777 739.525 252.068 741.937 255.246C744.349 258.424 745.686 262.318 745.748 266.342H746.053C748.299 266.259 750.538 266.64 752.637 267.463C754.736 268.285 756.651 269.532 758.269 271.129C759.886 272.726 761.173 274.64 762.051 276.757C762.93 278.874 763.383 281.15 763.383 283.45C763.383 285.75 762.93 288.027 762.051 290.144C761.173 292.261 759.886 294.175 758.269 295.772C756.651 297.369 754.736 298.616 752.637 299.438C750.538 300.26 748.299 300.641 746.053 300.559V300.536Z" fill="#F5F5F5"/>
<path d="M286.564 159.73H225.18C222.697 159.527 220.381 158.365 218.704 156.48C217.027 154.594 216.114 152.126 216.15 149.576C216.186 147.026 217.168 144.586 218.898 142.751C220.628 140.916 222.975 139.823 225.463 139.694C226.413 139.697 227.358 139.839 228.269 140.117C228.12 139.1 228.047 138.073 228.052 137.045C228.052 131.412 230.238 126.01 234.129 122.027C238.021 118.044 243.299 115.807 248.803 115.807C250.087 115.812 251.368 115.931 252.631 116.163C254.679 112.725 257.763 110.062 261.418 108.575C265.074 107.088 269.103 106.857 272.898 107.917C276.693 108.977 280.048 111.271 282.458 114.453C284.868 117.635 286.202 121.532 286.26 125.557H286.564C290.893 125.717 294.993 127.59 298 130.781C301.008 133.972 302.688 138.232 302.688 142.666C302.688 147.099 301.008 151.36 298 154.551C294.993 157.742 290.893 159.614 286.564 159.774V159.73Z" fill="#F5F5F5"/>
<path d="M481.157 508.196C476.546 473.756 490.772 435.087 510.74 409.531C514.657 405.021 518.112 400.113 521.05 394.882C529.316 378.297 516.461 366.676 504.475 357.371C459.166 322.219 510.066 316.12 533.841 296.084C536.122 294.484 537.791 292.124 538.561 289.405C539.387 284.953 535.646 280.946 532.253 277.918C515.961 263.181 495.514 248.532 491.859 224.846C490.337 214.984 492.729 204.142 499.712 197.152C517.287 179.609 618.086 200.357 599.314 153.941C596.573 147.151 592.549 140.183 594.007 132.993C603.077 88.4689 710.271 106.011 739.244 107.503C714.618 106.254 689.961 109.219 666.288 116.274C655.412 119.524 642.927 125.824 641.774 137.378C640.621 148.932 651.105 157.058 659.175 162.712C671.509 171.328 687.083 184.551 674.032 200.558C657.479 220.905 625.242 223.71 601.859 230.077C593.68 232.303 584.849 235.687 584.457 245.839C584.196 251.604 586.633 257.125 589.395 262.157C595.246 272.931 602.729 282.838 607.319 294.236C611.908 305.634 612.322 320.839 604.491 331.324C589.482 351.494 562.401 345.951 581.738 379.41C606.122 421.708 604.817 471.263 586.915 515.943C577.91 538.383 561.444 564.296 535.255 565.921C520.746 566.834 506.564 558.886 497.341 547.377C488.505 536.102 482.902 522.538 481.157 508.196Z" fill="#E0E0E0"/>
<path d="M-8.26193 677.03L27.6941 669.684L35.7858 569.127L60.3002 551.74L68.8488 465.497L90.8835 440.119L101.129 459.887L117.856 491.054L123.446 521.709L132.93 549.091L153.42 581.883L171.823 565.075C171.823 565.075 181.85 548.423 186.657 546.242C191.465 544.06 211.063 542.234 211.063 542.234L238.34 568.949V589.942L266.248 605.169L283.41 622.823L293.677 635.801L312.753 645.953C354.669 616.344 458.492 533.285 481.592 422.977L507.695 448.111L526.293 418.191L540.866 449.691L530.578 482.862L548.501 499.58L540.866 533.085L562.205 499.58L550.763 475.916L559.464 455.057L552.939 424.179L573.103 414.852L598.835 455.057L616.411 422.999C616.411 422.999 638.272 590.298 820.879 727.988H-47.633L-8.26193 677.03Z" fill="#EBEBEB"/>
<path d="M389.799 829.391C622.724 829.391 811.548 818.108 811.548 804.191C811.548 790.273 622.724 778.99 389.799 778.99C156.874 778.99 -31.9497 790.273 -31.9497 804.191C-31.9497 818.108 156.874 829.391 389.799 829.391Z" fill="#F5F5F5"/>
<path d="M562.605 302.299L532.771 303.093C528.34 303.211 524.841 306.983 524.956 311.518L525.732 342.052C525.847 346.587 529.533 350.168 533.964 350.05L563.798 349.256C568.229 349.138 571.728 345.365 571.613 340.83L570.837 310.297C570.722 305.762 567.036 302.181 562.605 302.299Z" fill="#0A6D09"/>
<path d="M553.743 345.862C553.743 345.862 548.088 360.109 534.71 364.873C534.71 364.873 542.063 360.265 541.127 345.595L553.743 345.862Z" fill="#0A6D09"/>
<g opacity="0.5">
<path d="M545.5 336.156C545.499 335.779 545.574 335.406 545.718 335.059C545.863 334.712 546.075 334.399 546.342 334.139C546.608 333.879 546.923 333.677 547.269 333.545C547.614 333.413 547.981 333.355 548.349 333.373C548.713 333.358 549.077 333.419 549.417 333.552C549.757 333.686 550.067 333.889 550.328 334.15C550.588 334.41 550.794 334.723 550.933 335.068C551.071 335.412 551.14 335.783 551.133 336.156C551.139 336.53 551.071 336.903 550.933 337.25C550.795 337.597 550.59 337.912 550.33 338.176C550.07 338.44 549.76 338.648 549.42 338.787C549.08 338.925 548.715 338.992 548.349 338.983C547.979 338.995 547.611 338.93 547.265 338.794C546.92 338.657 546.605 338.451 546.339 338.187C546.073 337.923 545.862 337.607 545.718 337.258C545.574 336.91 545.499 336.534 545.5 336.156ZM545.739 313.448H550.959L550.068 330.345H546.587L545.739 313.448Z" fill="white"/>
</g>
<path d="M517.2 658.108L508.304 667.903L488.053 647.934L496.927 638.139L517.2 658.108Z" fill="#EEC1BB"/>
<path opacity="0.2" d="M496.927 638.139L488.053 647.934L498.515 658.241L507.39 648.424L496.927 638.139Z" fill="black"/>
<path d="M505.085 664.608L518.136 657.217C518.348 657.084 518.599 657.031 518.845 657.068C519.092 657.104 519.318 657.228 519.484 657.417L526.575 665.944C526.729 666.146 526.841 666.377 526.905 666.624C526.969 666.871 526.985 667.128 526.95 667.382C526.916 667.635 526.832 667.878 526.704 668.098C526.576 668.317 526.407 668.508 526.206 668.66C526.11 668.747 526 668.815 525.879 668.86C521.333 671.331 518.875 672.444 513.198 675.65C509.718 677.609 495.013 684.555 489.749 684.555C484.485 684.555 484.181 679.479 486.356 678.811C497.406 675.361 501.93 670.352 503.562 666.3C503.881 665.585 504.414 664.992 505.085 664.608Z" fill="#263238"/>
<path d="M502.235 668.682C501.499 669.172 500.632 669.413 499.755 669.372C499.475 669.322 499.212 669.197 498.994 669.009C498.776 668.822 498.611 668.578 498.515 668.304C498.435 668.149 498.394 667.977 498.394 667.803C498.394 667.628 498.435 667.456 498.515 667.302C499.494 665.966 504.28 666.033 504.823 666.055C504.877 666.053 504.93 666.069 504.973 666.102C505.017 666.134 505.048 666.18 505.063 666.233C505.093 666.287 505.109 666.349 505.109 666.411C505.109 666.474 505.093 666.535 505.063 666.589C504.191 667.382 503.244 668.083 502.235 668.682ZM499.407 667.369C499.281 667.432 499.169 667.523 499.081 667.636C499.039 667.693 499.016 667.764 499.016 667.836C499.016 667.908 499.039 667.979 499.081 668.036C499.139 668.225 499.247 668.394 499.393 668.524C499.538 668.653 499.717 668.739 499.907 668.771C501.516 668.567 502.998 667.776 504.084 666.545C502.489 666.525 500.904 666.804 499.407 667.369Z" fill="#0A6D09"/>
<path d="M505.084 666.634H504.932C503.453 666.634 499.951 665.543 499.581 664.185C499.528 663.955 499.553 663.712 499.651 663.498C499.75 663.284 499.917 663.11 500.125 663.005C500.312 662.868 500.523 662.769 500.747 662.716C500.971 662.662 501.203 662.655 501.43 662.694C503.301 662.983 505.128 666.033 505.193 666.211C505.233 666.282 505.244 666.366 505.224 666.445C505.203 666.525 505.153 666.592 505.084 666.634ZM500.473 663.406H500.343C500.016 663.651 500.06 663.829 500.082 663.896C500.299 664.697 502.67 665.699 504.258 665.899C503.671 665.053 502.387 663.384 501.213 663.206C500.958 663.159 500.696 663.206 500.473 663.339V663.406Z" fill="#0A6D09"/>
<path d="M664.048 679.501L656.783 690.632L633.682 674.203L640.947 663.072L664.048 679.501Z" fill="#EEC1BB"/>
<path d="M654.912 689.92L662.634 676.852C662.753 676.63 662.945 676.458 663.175 676.364C663.405 676.271 663.66 676.262 663.896 676.34L674.206 680.125C674.667 680.326 675.032 680.706 675.219 681.182C675.407 681.658 675.402 682.19 675.207 682.663C675.154 682.788 675.089 682.908 675.011 683.019C672.27 687.471 670.66 689.697 667.311 695.352C665.244 698.825 655.869 712.338 651.301 715.076C646.733 717.814 644.014 713.495 645.58 711.781C653.498 703.166 654.977 696.532 654.412 692.191C654.322 691.398 654.498 690.597 654.912 689.92Z" fill="#263238"/>
<path opacity="0.2" d="M640.947 663.072L633.682 674.203L645.602 682.663L652.867 671.532L640.947 663.072Z" fill="black"/>
<path d="M654.411 694.884C654.013 695.692 653.373 696.347 652.584 696.754C652.318 696.853 652.031 696.879 651.752 696.828C651.473 696.777 651.213 696.652 650.996 696.465C650.856 696.367 650.742 696.233 650.666 696.077C650.59 695.922 650.554 695.749 650.561 695.574C650.757 693.905 654.912 691.523 655.412 691.278C655.456 691.245 655.51 691.228 655.564 691.228C655.619 691.228 655.672 691.245 655.716 691.278C655.747 691.332 655.763 691.393 655.763 691.456C655.763 691.519 655.747 691.58 655.716 691.634C655.39 692.76 654.953 693.849 654.411 694.884ZM651.301 695.196C651.232 695.319 651.187 695.456 651.17 695.597C651.162 695.665 651.172 695.734 651.198 695.796C651.225 695.859 651.268 695.913 651.323 695.953C651.467 696.087 651.646 696.177 651.838 696.212C652.031 696.248 652.229 696.227 652.41 696.153C653.708 695.197 654.633 693.801 655.02 692.213C653.614 692.967 652.353 693.978 651.301 695.196Z" fill="#0A6D09"/>
<path d="M655.804 691.723H655.673C654.412 692.525 650.822 693.326 649.844 692.324C649.686 692.153 649.59 691.932 649.57 691.698C649.551 691.464 649.609 691.23 649.735 691.033C649.845 690.813 649.999 690.618 650.186 690.461C650.373 690.304 650.59 690.188 650.823 690.12C652.563 689.43 655.651 691.122 655.804 691.256C655.853 691.283 655.892 691.326 655.916 691.378C655.939 691.43 655.946 691.489 655.934 691.545C655.93 691.584 655.915 691.621 655.892 691.652C655.869 691.683 655.839 691.708 655.804 691.723ZM650.344 691.278V691.389C650.17 691.768 650.344 691.901 650.344 691.968C650.91 692.547 653.476 692.213 654.955 691.567C653.752 690.879 652.366 690.598 650.997 690.766C650.747 690.859 650.539 691.041 650.409 691.278H650.344Z" fill="#0A6D09"/>
<path d="M647.647 666.211L646.254 668.437L645.08 670.307L638.184 681.015C638.184 681.015 576.017 642.97 568.578 636.669C561.139 630.369 521.746 555.48 521.746 555.48C521.094 555.68 494.578 564.385 475.328 572.288C464.169 576.852 455.468 581.193 455.599 583.241C455.968 589.118 504.671 645.04 504.671 645.04L491.816 653.522C491.816 653.522 412.182 598.846 414.531 573.49C416.88 548.134 496.971 518.459 496.971 518.459L498.45 480.613L543.237 486.691L545.586 487.002L549.371 487.514C565.62 525.849 585.066 606.816 587.481 613.495C589.895 620.173 647.647 666.211 647.647 666.211Z" fill="#0A6D09"/>
<path d="M646.255 668.37L645.08 670.24C628.549 658.041 581.804 622.867 580.107 613.918C578.41 604.968 547.762 502.007 543.238 486.78C542.868 485.622 542.694 484.999 542.672 484.91L544.847 484.264L545.695 487.091C551.22 505.613 580.499 604.211 582.347 613.495C583.522 620.151 619.478 648.624 646.255 668.37Z" fill="white"/>
<path d="M392.344 405.702L373.355 398.6C373.258 396.845 372.727 395.145 371.81 393.658C370.396 391.81 353.625 384.486 353.691 386.979C353.756 389.473 352.299 395.884 356.214 399.468C360.129 403.053 370.353 408.373 372.31 405.59L388.168 414.963L392.344 405.702Z" fill="#EEC1BB"/>
<path d="M467.889 446.04C467.889 446.04 456.23 443.502 444.179 440.787L427.713 437.047C413.574 433.707 381.62 418.591 380.511 414.362C379.402 410.132 383.208 401.316 388.907 401.806C394.606 402.296 428.605 413.716 428.605 413.716L460.906 414.161L464.213 429.366L467.889 446.04Z" fill="#0A6D09"/>
<path d="M439.372 417.679C435.836 417.868 432.293 417.868 428.757 417.679C427.887 417.523 425.124 416.61 419.904 414.874C408.788 411.156 388.102 404.277 382.142 404.41V402.184C388.472 402.051 408.615 408.752 420.622 412.759C424.82 414.139 428.43 415.341 429.192 415.497C431.367 415.898 450.487 415.274 462.842 414.762V416.988C460.863 416.988 448.66 417.478 439.372 417.679Z" fill="white"/>
<path d="M379.641 399.468L386.319 402.229L380.424 413.471L376.335 410.666L379.641 399.468Z" fill="#0A6D09"/>
<path opacity="0.2" d="M379.641 399.468L386.319 402.229L380.424 413.471L376.335 410.666L379.641 399.468Z" fill="black"/>
<path opacity="0.2" d="M467.888 446.04C467.888 446.04 456.229 443.502 444.179 440.786C446.615 433.373 458.405 430.412 464.212 429.366L467.888 446.04Z" fill="black"/>
<path d="M553.417 478.365C553.531 479.604 553.229 480.846 552.561 481.886C551.893 482.926 550.898 483.702 549.741 484.086C549.285 484.243 548.809 484.333 548.328 484.353H547.566L498.429 486.713C497.239 486.775 496.063 486.427 495.089 485.724C494.115 485.022 493.399 484.007 493.056 482.839C492.387 480.561 491.573 478.33 490.62 476.161C486.215 466.435 480.052 457.65 472.457 450.27C470.281 448.044 467.802 445.818 465.105 443.591C462.831 441.773 460.961 439.482 459.619 436.868C458.276 434.254 457.492 431.378 457.317 428.431C457.089 424.497 457.838 420.569 459.493 417.011C459.879 416.208 460.307 415.428 460.776 414.673L461.059 414.228C461.059 414.228 502.387 407.304 525.553 415.719C541.155 433.009 550.923 454.968 553.417 478.365Z" fill="#0A6D09"/>
<path d="M549.741 484.086C549.768 485.151 549.651 486.215 549.393 487.247L547.218 486.579C547.435 485.859 547.523 485.105 547.479 484.353C547.588 470.551 527.554 422.131 523.856 419.794C510.588 413.115 469.781 415.965 459.34 416.833C459.726 416.03 460.155 415.25 460.623 414.495C473.152 413.494 511.436 411.067 524.857 417.79C529.012 419.972 549.611 467.946 549.741 484.086Z" fill="white"/>
<path d="M496.318 485.422L551.851 482.728L554.004 491.188L496.71 493.97L496.318 485.422Z" fill="#0A6D09"/>
<path opacity="0.2" d="M496.318 485.422L551.851 482.728L554.004 491.188L496.71 493.97L496.318 485.422Z" fill="black"/>
<path d="M475.872 410.8C477.307 408.061 495.71 403.765 497.906 405.613C500.103 407.46 499.929 413.493 499.929 413.493C499.929 413.493 486.878 423.422 481.593 421.329C476.307 419.237 475.872 410.8 475.872 410.8Z" fill="#0A6D09"/>
<path opacity="0.4" d="M475.872 410.8C477.307 408.061 495.71 403.765 497.906 405.613C500.103 407.46 499.929 413.493 499.929 413.493C499.929 413.493 486.878 423.422 481.593 421.329C476.307 419.237 475.872 410.8 475.872 410.8Z" fill="black"/>
<path d="M499.885 412.291C499.472 417.924 494.73 423.845 484.268 424.669C477.742 425.203 476.285 422.443 476.546 420.64C479.852 418.28 478.134 418.124 478.721 415.564C479.482 411.512 477.372 407.394 474.762 403.631V403.498L481.288 391.165L485.638 382.638C487.161 392.077 491.641 408.841 499.885 412.291Z" fill="#EEC1BB"/>
<path opacity="0.2" d="M486.029 391.209C486.845 395.578 486.597 400.085 485.307 404.333C484.017 408.58 481.725 412.437 478.634 415.564C479.395 411.512 477.285 407.394 474.675 403.631C474.675 403.631 474.675 403.498 474.675 403.476L481.201 391.142C481.984 392.545 485.638 389.584 486.029 391.209Z" fill="black"/>
<path d="M475.872 410.8C476.461 412.235 477.474 413.446 478.769 414.264C480.063 415.082 481.575 415.467 483.093 415.363C488.531 415.096 497.906 405.613 497.906 405.613L505.367 411.891C505.367 411.891 493.36 427.719 484.398 427.474C475.436 427.229 472.587 417.501 472.587 417.501L475.872 410.8Z" fill="#0A6D09"/>
<path opacity="0.2" d="M475.872 410.8C476.461 412.235 477.474 413.446 478.769 414.264C480.063 415.082 481.575 415.467 483.093 415.363C488.531 415.096 497.906 405.613 497.906 405.613L505.367 411.891C505.367 411.891 493.36 427.719 484.398 427.474C475.436 427.229 472.587 417.501 472.587 417.501L475.872 410.8Z" fill="black"/>
<path d="M508.848 493.592L506.825 485.533C505.038 484.09 503.874 481.989 503.584 479.678C502.757 476.428 501.408 470.974 494.209 460.155C482.114 441.877 483.115 428.988 483.333 427.385L482.027 415.475L484.203 415.23L485.508 427.429V427.563C485.508 427.697 483.876 440.564 496.036 458.93C503.41 470.061 504.845 475.738 505.694 479.144C505.789 480.105 506.083 481.035 506.555 481.871C507.028 482.708 507.668 483.432 508.434 483.997L508.761 484.22L510.936 493.124L508.848 493.592Z" fill="#263238"/>
<path opacity="0.2" d="M518.397 466.009C512.589 471.53 499.385 474.691 490.619 476.25C486.224 466.492 480.061 457.677 472.456 450.27C481.919 449.023 495.622 447.287 495.622 447.287C500.712 435.933 506.803 425.292 513.263 422.131C519.267 419.215 528.381 427.14 529.142 434.241C529.903 441.343 527.467 457.416 518.397 466.009Z" fill="black"/>
<path d="M460.449 360.977C459.927 359.879 459.631 358.683 459.58 357.462C459.529 356.242 459.723 355.024 460.152 353.884C460.58 352.744 461.233 351.706 462.07 350.835C462.907 349.965 463.91 349.28 465.017 348.822C473.283 344.593 495.47 349.936 500.821 358.529C506.172 367.122 512.11 368.88 512.11 368.88C511.737 369.976 511.009 370.908 510.048 371.523C509.087 372.139 507.95 372.4 506.824 372.264C508.128 372.63 509.284 373.408 510.128 374.488C510.972 375.568 511.461 376.894 511.523 378.275C509.8 378.828 508.16 379.622 506.65 380.635C505.606 381.703 506.65 387.313 503.888 386.824C501.125 386.334 501.713 385.933 500.016 389.05C498.319 392.166 491.467 398.489 488.814 395.929C486.16 393.369 457.73 369.949 457.73 369.949C457.73 369.949 455.838 360.332 460.449 360.977Z" fill="#263238"/>
<path d="M490.967 378.275C489.293 389.406 488.683 396.597 483.789 402.162C483.119 402.924 482.392 403.631 481.614 404.277C471.282 413.182 456.491 405.902 454.642 392.923C454.333 390.563 454.216 388.18 454.294 385.8C454.62 374.802 458.796 361.801 469.085 358.64C471.224 357.962 473.474 357.723 475.703 357.936C477.933 358.149 480.1 358.81 482.08 359.881C484.06 360.952 485.815 362.412 487.243 364.178C488.671 365.944 489.744 367.981 490.402 370.172C491.198 372.792 491.391 375.565 490.967 378.275Z" fill="#EEC1BB"/>
<path d="M471.804 380.011C471.804 381.058 471.086 381.837 470.434 381.77C469.781 381.703 469.302 380.813 469.389 379.766C469.476 378.72 470.107 377.963 470.76 378.03C471.412 378.097 471.891 378.965 471.804 380.011Z" fill="#263238"/>
<path d="M460.362 378.921C460.362 379.945 459.645 380.746 458.992 380.679C458.339 380.612 457.883 379.7 457.97 378.676C458.057 377.652 458.688 376.85 459.34 376.917C459.993 376.984 460.449 377.941 460.362 378.921Z" fill="#263238"/>
<path d="M463.951 379.766C462.455 382.819 460.552 385.643 458.296 388.159C458.948 388.731 459.714 389.152 460.539 389.394C461.365 389.636 462.232 389.693 463.081 389.562L463.951 379.766Z" fill="#D4827D"/>
<path d="M476.263 375.581C476.165 375.63 476.057 375.656 475.948 375.656C475.838 375.656 475.731 375.63 475.632 375.581C475.038 375.121 474.347 374.811 473.613 374.676C472.88 374.54 472.126 374.584 471.412 374.802C471.265 374.862 471.101 374.86 470.955 374.798C470.809 374.735 470.692 374.617 470.629 374.468C470.572 374.321 470.574 374.156 470.635 374.01C470.697 373.864 470.812 373.748 470.956 373.689C471.857 373.391 472.816 373.319 473.75 373.478C474.685 373.637 475.569 374.022 476.328 374.602C476.393 374.646 476.449 374.704 476.492 374.771C476.535 374.838 476.565 374.913 476.579 374.992C476.593 375.071 476.591 375.152 476.575 375.23C476.558 375.308 476.526 375.382 476.481 375.448C476.418 375.507 476.344 375.553 476.263 375.581Z" fill="#263238"/>
<path d="M465.735 395.06C467.195 394.905 468.598 394.395 469.827 393.575C471.056 392.754 472.077 391.645 472.805 390.341C472.837 390.26 472.839 390.171 472.811 390.089C472.783 390.007 472.726 389.938 472.652 389.896C472.617 389.876 472.578 389.865 472.537 389.861C472.497 389.857 472.457 389.862 472.418 389.874C472.38 389.887 472.344 389.907 472.313 389.933C472.283 389.96 472.257 389.993 472.239 390.029C471.568 391.242 470.628 392.277 469.494 393.051C468.361 393.824 467.066 394.314 465.713 394.482C465.672 394.481 465.632 394.49 465.594 394.507C465.557 394.524 465.523 394.55 465.496 394.581C465.469 394.613 465.45 394.651 465.438 394.691C465.427 394.732 465.424 394.774 465.431 394.816C465.433 394.857 465.444 394.897 465.462 394.933C465.48 394.97 465.505 395.003 465.535 395.03C465.565 395.057 465.601 395.077 465.639 395.09C465.677 395.103 465.717 395.108 465.757 395.105L465.735 395.06Z" fill="#263238"/>
<path d="M455.99 371.641C455.895 371.57 455.826 371.468 455.794 371.351C455.782 371.274 455.786 371.194 455.804 371.118C455.823 371.041 455.857 370.97 455.904 370.907C455.951 370.845 456.01 370.793 456.077 370.754C456.144 370.716 456.218 370.692 456.295 370.684C457.234 370.553 458.19 370.655 459.083 370.98C459.976 371.306 460.78 371.845 461.428 372.554C461.537 372.666 461.598 372.818 461.598 372.976C461.598 373.135 461.537 373.287 461.428 373.399C461.318 373.511 461.17 373.574 461.015 373.574C460.86 373.574 460.712 373.511 460.602 373.399C460.076 372.853 459.432 372.441 458.721 372.197C458.01 371.954 457.254 371.885 456.512 371.997C456.403 371.987 456.298 371.95 456.207 371.887C456.115 371.825 456.041 371.74 455.99 371.641Z" fill="#263238"/>
<path d="M461.776 362.87C462.818 362.713 463.881 362.806 464.881 363.142C465.882 363.478 466.792 364.048 467.54 364.806C471.427 364.55 475.329 364.647 479.199 365.096C480.477 365.454 481.631 366.172 482.531 367.167C483.431 368.163 484.04 369.396 484.289 370.728C484.594 371.708 482.723 373.555 482.723 373.555C482.723 373.555 482.876 385.287 482.941 388.538L487.422 397.442C492.815 389.185 495.83 379.542 496.122 369.615C496.666 352.918 464.495 352.941 464.495 352.941L461.776 362.87Z" fill="#263238"/>
<path d="M495.274 392.812C494.33 394.077 493.15 395.139 491.802 395.933C490.454 396.728 488.965 397.241 487.422 397.442C483.289 397.977 481.853 394.036 483.507 390.363C485.007 387.135 488.966 382.839 492.86 384.041C493.709 384.304 494.479 384.782 495.1 385.431C495.72 386.079 496.172 386.876 496.412 387.75C496.653 388.624 496.675 389.545 496.476 390.43C496.277 391.314 495.864 392.134 495.274 392.812Z" fill="#EEC1BB"/>
<path d="M464.734 462.136L443.396 464.629C443.396 464.629 430.975 456.726 428.169 456.57C425.363 456.415 425.603 469.616 428.887 472.154C432.172 474.692 440.22 475.137 441.373 475.07C442.526 475.003 444.418 472.577 444.418 472.577L466.17 470.061L464.734 462.136Z" fill="#EEC1BB"/>
<path d="M507.869 466.188C502.235 468.258 461.494 476.406 459.297 473.2L458.709 472.354L458.078 471.308C456.012 467.835 453.946 462.715 457.6 459.62C461.95 455.88 495.231 451.851 497.449 448.979C499.668 446.107 513.046 410.488 525.488 415.586C525.734 415.693 525.967 415.827 526.184 415.987C527.122 416.565 527.83 417.464 528.185 418.525C532.492 429.656 512.893 464.384 507.869 466.188Z" fill="#0A6D09"/>
<path d="M528.185 418.524C527.573 422.182 526.656 425.779 525.444 429.277C521.333 441.677 512.567 460.444 505.868 463.627C497.297 467.657 463.43 471.708 458.622 472.265H458.1L457.991 471.174L457.861 470.083C458.253 470.083 496.253 465.631 504.976 461.557C510.196 459.108 518.658 442.501 523.313 428.498C524.869 424.485 525.809 420.249 526.097 415.942C527.076 416.516 527.818 417.433 528.185 418.524Z" fill="white"/>
<path d="M450.422 461.735L456.925 460.555L460.21 473.245L452.597 474.157L450.422 461.735Z" fill="#0A6D09"/>
<path opacity="0.2" d="M450.422 461.735L456.925 460.555L460.21 473.245L452.597 474.157L450.422 461.735Z" fill="black"/>
<path d="M640.273 683.753L651.084 666.011L646.407 662.916L634.878 681.149L640.273 683.753Z" fill="#0A6D09"/>
<path opacity="0.2" d="M640.273 683.753L651.084 666.011L646.407 662.916L634.878 681.149L640.273 683.753Z" fill="black"/>
<path d="M491.968 657.863L507.129 643.86L503.475 639.563L487.487 653.833L491.968 657.863Z" fill="#0A6D09"/>
<path opacity="0.2" d="M491.968 657.863L507.129 643.86L503.475 639.563L487.487 653.833L491.968 657.863Z" fill="black"/>
<path opacity="0.2" d="M521.725 555.413C521.072 555.614 494.556 564.318 475.306 572.221C477.198 550.827 507.934 537.67 507.934 537.67L521.725 555.413Z" fill="black"/>
<path d="M257.438 257.459C252.283 282.994 217.001 322.62 162.796 284.752C149.57 275.514 144.154 264.583 143.589 253.363C141.827 219.659 183.351 183.238 185.896 181.034H186.027C186.027 181.034 184.286 165.095 172.258 163.225C171.183 163.093 170.129 162.816 169.125 162.401C162.6 159.462 172.258 151.782 172.258 151.782C180.001 145.615 187.745 157.793 192.9 156.546C198.055 155.299 204.103 146.506 207.539 150.023C210.976 153.541 206.669 163.225 214.413 163.225C222.157 163.225 231.423 159.707 233.99 163.225C236.556 166.742 233.99 178.808 233.99 178.808C233.99 178.808 215.174 174.778 210.063 180.856C210.063 180.856 254.502 224.022 257.569 250.803C257.874 253.015 257.83 255.262 257.438 257.459Z" fill="#0A6D09"/>
<path d="M214.87 250.358L215.957 258.55L208.779 258.261L207.887 250.158C199.513 249.378 191.356 246.796 186.875 243.479L190.29 236.956C195.416 240.083 201.147 242.028 207.082 242.655L205.69 229.832C196.815 227.873 187.419 225.38 187.114 217.433C186.897 211.912 192.052 207.504 203.211 207.148L202.602 201.538L208.366 201.76L209.105 207.259C214.345 207.624 219.49 208.872 224.332 210.954L222.309 216.23C218.322 214.515 214.119 213.384 209.823 212.869L211.324 224.133C220.155 226.048 230.031 228.586 231.793 237.179C233.185 243.947 228.073 249.779 214.87 250.358ZM204.907 222.62L203.82 212.758C198.643 213.158 196.598 214.984 196.772 217.41C196.946 219.837 200.361 221.573 204.907 222.62ZM221.547 237.29C221.025 234.174 217.197 232.593 212.325 231.346L213.869 242.744C219.807 242.344 222.004 240.184 221.547 237.379V237.29Z" fill="white"/>
<path opacity="0.2" d="M234.098 178.875C234.098 178.875 215.283 174.845 210.171 180.923C203.276 179.52 190.377 176.983 186.07 180.923C186.07 180.923 184.33 164.983 172.301 163.113C171.226 162.982 170.173 162.705 169.169 162.29C170.122 160.72 171.507 159.473 173.149 158.705C181.85 154.743 186.918 169.28 192.944 167.076C198.969 164.872 203.276 157.837 207.148 162.624C211.02 167.41 227.964 161.933 234.098 178.875Z" fill="black"/>
<path opacity="0.2" d="M257.438 257.459C252.283 282.994 217.001 322.62 162.795 284.753C149.57 275.514 144.154 264.583 143.588 253.363C146.829 256.925 150.68 258.684 158.924 258.55C173.106 258.328 202.58 243.39 215.174 252.629C227.769 261.867 249.303 260.687 257.634 250.87C257.91 253.063 257.844 255.287 257.438 257.459Z" fill="black"/>
<path d="M184.352 182.415C184.352 182.415 178.718 179.075 189.463 175.981C200.209 172.886 217.741 178.875 213.869 184.708C209.439 182.065 204.481 180.485 199.368 180.088C194.255 179.691 189.121 180.486 184.352 182.415Z" fill="#263238"/>
<path d="M201.601 178.096C201.601 178.096 203.776 195.26 209.475 192.61C215.174 189.961 205.538 181.034 205.538 181.034C205.538 181.034 218.937 189.494 220.221 183.594C221.504 177.695 204.298 174.667 201.601 178.096ZM208.496 189.761C207.322 190.629 205.386 182.949 205.386 182.949C205.712 183.149 209.693 188.759 208.496 189.65V189.761ZM216.958 182.704C216.131 184.04 209.475 179.632 209.475 179.632C209.475 179.632 217.784 181.279 216.958 182.548V182.704Z" fill="#263238"/>
<path d="M207.082 180.322C207.082 180.322 219.068 187.891 225.419 188.314C225.57 188.641 225.649 188.998 225.649 189.36C225.649 189.722 225.57 190.079 225.419 190.406C225.419 190.406 211.063 185.954 208.018 182.303C208.018 182.303 214.957 193.724 220.373 190.406C220.969 190.842 221.417 191.457 221.656 192.165C221.656 192.165 219.677 193.813 215.457 192.165C211.237 190.518 205.603 181.034 205.603 181.034L207.082 180.322Z" fill="#263238"/>
<path d="M-0.713921 804.19L21.6688 599.158L40.332 569.906L54.0575 507.216C54.0575 507.216 73.6343 445.172 73.4385 439.807C73.2427 434.442 85.7066 374.512 85.7066 374.512L98.7578 309.107L116.703 266.809L172.04 262.958L199.404 280.1L281.452 285.821L322.368 333.684L335.724 379.432L368.961 404.455L382.425 445.662L420.056 461.957L437.349 474.291L417.772 580.079L516.722 677.921L655.456 710L740.636 758.531L769.719 804.19H-0.713921Z" fill="#0A6D09"/>
<path opacity="0.6" d="M769.697 804.191H-0.714035L21.6687 599.158L40.3319 569.906L54.0574 507.216C54.0574 507.216 73.6342 445.172 73.4384 439.807C73.2426 434.442 85.7065 374.513 85.7065 374.513L95.5819 324.624L98.6489 309.04L116.594 266.743L171.931 262.891L199.295 280.033L281.344 285.754L322.368 333.684L335.724 379.433L368.96 404.455L382.425 445.662L420.056 461.958L437.349 474.291L417.772 580.08L516.722 677.921L610.951 699.715L655.456 710.023L686.648 727.832L740.636 758.576L769.697 804.191Z" fill="white"/>
<path opacity="0.2" d="M769.697 804.19H-0.713921L21.6688 599.158L16.4919 778.968L40.419 790.099L69.3709 704.68V764.787L106.001 779.079L136.128 744.684L180.654 694.15L197.881 591.745L192.139 565.03L244.909 440.141V608.486L274.753 644.639V696.799L279.343 752.765L313.667 749.404L323.999 663.406L347.752 648.802L373.964 603.633L380.489 722.266L400.218 758.62L483.18 692.947L516.787 678.01L611.016 699.804C584.74 706.26 531.578 719.595 531.165 722.266C530.599 725.784 535.385 743.326 542.759 752.743C550.133 762.16 586.959 781.995 586.959 781.995L636.771 779.057L658.305 749.493L686.713 727.876L740.702 758.62H671.095V779.057L769.697 804.19Z" fill="black"/>
<path opacity="0.2" d="M171.931 262.913L147.308 329.098L142.784 416.921L122.054 510.422L163.383 404.188L189.681 363.738C189.681 363.738 174.781 344.971 175.912 340.407C177.043 335.843 203.45 285.197 203.45 285.197L171.931 262.913Z" fill="black"/>
<path opacity="0.2" d="M73.656 651.562C73.6537 652.053 73.5804 652.541 73.4384 653.009C73.2862 653.388 73.3732 652.831 73.656 651.562Z" fill="black"/>
<path opacity="0.2" d="M80.312 450.314L95.5384 469.727V569.906C95.5384 569.906 76.3314 640.12 73.6124 651.54C74.2432 641.834 69.262 591.566 69.262 591.566L40.3319 569.906L54.0574 507.216C54.0574 507.216 73.6341 445.172 73.4384 439.807C73.2426 434.442 85.7065 374.512 85.7065 374.512L95.5819 324.623L80.312 450.314Z" fill="black"/>
<path opacity="0.2" d="M322.368 333.684L299.419 419.081L287.282 431.882C287.282 431.882 273.513 568.37 273.513 563.672C273.513 558.975 299.441 445.239 299.441 445.239L322.368 422.821L335.724 379.432L322.368 333.684Z" fill="black"/>
<path opacity="0.2" d="M382.447 445.662L357.454 523.579V554.879L369.939 526.718C369.939 526.718 391.844 513.36 392.344 510.288C392.844 507.216 420.078 461.868 420.078 461.868L382.447 445.662Z" fill="black"/>
<path d="M672.227 804.191H749.881C749.881 804.191 734.415 779.97 727.825 783.042C719.254 787.049 712.881 765.099 703.397 770.308C700.047 772.133 701.679 778.011 699.569 780.37C696.088 784.266 691.673 783.509 687.453 785.646C679.231 789.854 676.294 795.419 672.227 804.191Z" fill="#263238"/>
<path d="M736.721 793.104C736.721 793.104 712.424 788.652 710.053 784.556C707.682 780.459 723.713 785.958 723.713 785.958C723.713 785.958 694 764.23 695.958 758.175C697.915 752.12 722.06 775.985 722.06 775.985C722.06 775.985 690.324 735.09 696.784 729.079C703.245 723.068 727.237 770.842 727.237 770.842C727.237 770.842 718.167 746.354 724.083 743.772C730 741.189 734.698 771.31 734.698 771.31C734.698 771.31 736.221 759.422 739.788 760.758C743.355 762.093 742.681 782.864 736.721 793.104Z" fill="#0A6D09"/>
<path opacity="0.2" d="M736.721 793.104C736.721 793.104 712.424 788.652 710.053 784.556C707.682 780.459 723.713 785.958 723.713 785.958C723.713 785.958 694 764.23 695.958 758.175C697.915 752.12 722.06 775.985 722.06 775.985C722.06 775.985 690.324 735.09 696.784 729.079C703.245 723.068 727.237 770.842 727.237 770.842C727.237 770.842 718.167 746.354 724.083 743.772C730 741.189 734.698 771.31 734.698 771.31C734.698 771.31 736.221 759.422 739.788 760.758C743.355 762.093 742.681 782.864 736.721 793.104Z" fill="white"/>
<path d="M734.894 789.809C734.894 789.809 711.424 765.722 711.837 759.422C712.25 753.122 725.889 771.666 725.889 771.666C725.889 771.666 709.335 724.359 716.035 719.195C722.735 714.03 731.544 759.422 731.544 759.422C731.544 759.422 727.194 689.319 738.766 687.738C750.338 686.158 741.137 757.819 741.137 757.819C741.137 757.819 749.577 723.513 757.973 725.428C766.369 727.342 749.076 764.208 749.076 764.208C749.076 764.208 759.648 752.254 762.584 756.528C765.521 760.802 749.163 783.153 734.894 789.809Z" fill="#0A6D09"/>
<path opacity="0.4" d="M734.894 789.809C734.894 789.809 711.424 765.722 711.837 759.422C712.25 753.122 725.889 771.666 725.889 771.666C725.889 771.666 709.335 724.359 716.035 719.195C722.735 714.03 731.544 759.422 731.544 759.422C731.544 759.422 727.194 689.319 738.766 687.738C750.338 686.158 741.137 757.819 741.137 757.819C741.137 757.819 749.577 723.513 757.973 725.428C766.369 727.342 749.076 764.208 749.076 764.208C749.076 764.208 759.648 752.254 762.584 756.528C765.521 760.802 749.163 783.153 734.894 789.809Z" fill="white"/>
<path d="M706.442 804.191H768.283C768.283 804.191 755.949 784.889 750.707 787.338C743.877 790.522 738.809 773.046 731.239 777.187C728.564 778.656 729.869 783.331 728.194 785.201C725.41 788.318 721.886 787.717 718.536 789.431C712.011 792.77 709.683 797.2 706.442 804.191Z" fill="#263238"/>
<path opacity="0.2" d="M706.442 804.191H768.283C768.283 804.191 755.949 784.889 750.707 787.338C743.877 790.522 738.809 773.046 731.239 777.187C728.564 778.656 729.869 783.331 728.194 785.201C725.41 788.318 721.886 787.717 718.536 789.431C712.011 792.77 709.683 797.2 706.442 804.191Z" fill="white"/>
<path d="M79.8118 759.867C79.8118 759.867 56.6024 672.801 37.7435 645.218C18.8846 617.635 49.1198 707.551 49.1198 707.551C49.1198 707.551 22.7129 650.227 14.4254 652.052C6.1379 653.878 41.7676 715.744 41.7676 715.744C41.7676 715.744 14.6647 666.211 2.80984 674.292C-9.04497 682.373 37.4172 733.309 37.4172 733.309C37.4172 733.309 -4.36829 701.251 -8.50117 710.156C-12.634 719.061 31.8705 747.556 31.8705 747.556C31.8705 747.556 -10.4371 738.763 -14.9615 754.057C-19.4859 769.351 27.1938 767.035 27.1938 767.035C27.1938 767.035 5.63761 766.056 1.54824 781.995C-2.54113 797.935 58.1251 792.147 79.8118 759.867Z" fill="#0A6D09"/>
<path opacity="0.2" d="M79.8118 759.867C79.8118 759.867 56.6024 672.801 37.7435 645.218C18.8846 617.635 49.1198 707.551 49.1198 707.551C49.1198 707.551 22.7129 650.227 14.4254 652.052C6.1379 653.878 41.7676 715.744 41.7676 715.744C41.7676 715.744 14.6647 666.211 2.80984 674.292C-9.04497 682.373 37.4172 733.309 37.4172 733.309C37.4172 733.309 -4.36829 701.251 -8.50117 710.156C-12.634 719.061 31.8705 747.556 31.8705 747.556C31.8705 747.556 -10.4371 738.763 -14.9615 754.057C-19.4859 769.351 27.1938 767.035 27.1938 767.035C27.1938 767.035 5.63761 766.056 1.54824 781.995C-2.54113 797.935 58.1251 792.147 79.8118 759.867Z" fill="white"/>
<path d="M91.6665 785.045C91.6665 785.045 60.1915 723.046 66.5648 712.182C72.9381 701.318 86.3808 736.425 86.3808 736.425C86.3808 736.425 62.1056 656.995 70.8717 648.246C79.6377 639.497 95.7124 716.657 95.7124 716.657C95.7124 716.657 87.1856 626.273 95.7124 621.442C104.239 616.611 108.35 703.255 108.35 703.255C108.35 703.255 114.158 611.603 124.86 612.983C135.562 614.363 124.86 694.417 124.86 694.417C124.86 694.417 148.787 633.486 159.489 635.935C170.191 638.384 142.262 699.025 142.262 699.025C142.262 699.025 170.539 662.427 178.783 671.02C187.027 679.613 153.442 719.684 153.442 719.684C153.442 719.684 182.198 701.251 189.681 710.468C197.164 719.684 159.554 739.408 159.554 739.408C159.554 739.408 190.181 747.534 188.049 755.348C185.918 763.162 159.554 762.026 159.554 762.026C159.554 762.026 148.069 817.592 91.6665 785.045Z" fill="#0A6D09"/>
<path opacity="0.2" d="M91.6665 785.045C91.6665 785.045 60.1915 723.046 66.5648 712.182C72.9381 701.318 86.3808 736.425 86.3808 736.425C86.3808 736.425 62.1056 656.995 70.8717 648.246C79.6377 639.497 95.7124 716.657 95.7124 716.657C95.7124 716.657 87.1856 626.273 95.7124 621.442C104.239 616.611 108.35 703.255 108.35 703.255C108.35 703.255 114.158 611.603 124.86 612.983C135.562 614.363 124.86 694.417 124.86 694.417C124.86 694.417 148.787 633.486 159.489 635.935C170.191 638.384 142.262 699.025 142.262 699.025C142.262 699.025 170.539 662.427 178.783 671.02C187.027 679.613 153.442 719.684 153.442 719.684C153.442 719.684 182.198 701.251 189.681 710.468C197.164 719.684 159.554 739.408 159.554 739.408C159.554 739.408 190.181 747.534 188.049 755.348C185.918 763.162 159.554 762.026 159.554 762.026C159.554 762.026 148.069 817.592 91.6665 785.045Z" fill="black"/>
<path d="M23.9963 636.87C23.9921 637.842 24.2708 638.794 24.7969 639.604C25.323 640.413 26.0728 641.044 26.9507 641.417C27.8285 641.789 28.7947 641.885 29.7262 641.693C30.6576 641.501 31.5122 641.03 32.181 640.339C32.8497 639.648 33.3025 638.769 33.4814 637.814C33.6604 636.859 33.5576 635.871 33.186 634.976C32.8144 634.081 32.1909 633.32 31.3949 632.789C30.5989 632.258 29.6665 631.981 28.7165 631.994C27.4606 632.006 26.2601 632.525 25.3761 633.438C24.4921 634.351 23.9962 635.584 23.9963 636.87Z" fill="#0A6D09"/>
<path d="M83.3574 765.633C83.1047 765.628 82.8613 765.534 82.6675 765.368C82.4737 765.203 82.341 764.974 82.2915 764.72C82.1175 763.741 64.5419 665.766 22.7782 623.735C22.5984 623.524 22.5033 623.25 22.5119 622.97C22.5205 622.69 22.6321 622.423 22.8245 622.223C23.0169 622.024 23.2758 621.906 23.5495 621.893C23.8232 621.88 24.0915 621.974 24.3008 622.155C66.5649 664.675 84.271 763.34 84.445 764.319C84.4731 764.466 84.4722 764.617 84.4423 764.763C84.4124 764.909 84.3542 765.047 84.271 765.169C84.1878 765.292 84.0814 765.396 83.9581 765.476C83.8347 765.555 83.697 765.609 83.5532 765.633H83.3574Z" fill="#0A6D09"/>
<path d="M17.9494 622.956C17.9494 624.088 18.2772 625.194 18.8915 626.135C19.5057 627.075 20.3788 627.809 21.4003 628.242C22.4218 628.675 23.5458 628.788 24.6302 628.567C25.7146 628.347 26.7107 627.802 27.4925 627.002C28.2743 626.202 28.8067 625.182 29.0224 624.072C29.2381 622.962 29.1274 621.812 28.7043 620.767C28.2812 619.721 27.5647 618.828 26.6454 618.199C25.7261 617.57 24.6453 617.235 23.5396 617.235C22.057 617.235 20.6351 617.837 19.5867 618.91C18.5383 619.983 17.9494 621.439 17.9494 622.956Z" fill="#0A6D09"/>
<path d="M35.8947 669.038C35.8947 670.007 36.1754 670.954 36.7012 671.759C37.227 672.565 37.9744 673.192 38.8488 673.563C39.7232 673.934 40.6854 674.031 41.6137 673.842C42.542 673.653 43.3947 673.186 44.0639 672.501C44.7332 671.816 45.189 670.944 45.3736 669.994C45.5583 669.044 45.4635 668.059 45.1013 667.164C44.7391 666.269 44.1257 665.504 43.3388 664.966C42.5518 664.428 41.6266 664.141 40.6801 664.141C40.0509 664.138 39.4273 664.262 38.8454 664.508C38.2635 664.753 37.7348 665.113 37.2899 665.569C36.8449 666.024 36.4926 666.565 36.2531 667.161C36.0136 667.756 35.8918 668.394 35.8947 669.038Z" fill="#0A6D09"/>
<path d="M56.9941 654.857C56.9984 655.821 57.2815 656.761 57.8075 657.56C58.3336 658.359 59.079 658.98 59.9499 659.346C60.8207 659.711 61.7778 659.805 62.7004 659.614C63.6231 659.423 64.4698 658.957 65.1339 658.275C65.7979 657.592 66.2494 656.723 66.4315 655.778C66.6136 654.833 66.5179 653.854 66.1568 652.964C65.7956 652.075 65.185 651.315 64.4021 650.78C63.6192 650.245 62.6991 649.96 61.7578 649.96C61.1304 649.96 60.5092 650.087 59.9298 650.333C59.3504 650.579 58.8243 650.941 58.3817 651.396C57.9391 651.851 57.5886 652.391 57.3505 652.985C57.1124 653.579 56.9913 654.215 56.9941 654.857Z" fill="#0A6D09"/>
<path d="M47.0316 691.612C49.6625 691.612 51.7953 689.429 51.7953 686.737C51.7953 684.044 49.6625 681.861 47.0316 681.861C44.4007 681.861 42.2679 684.044 42.2679 686.737C42.2679 689.429 44.4007 691.612 47.0316 691.612Z" fill="#0A6D09"/>
<path d="M64.0634 679.746C64.0634 680.716 64.3446 681.664 64.8714 682.47C65.3982 683.276 66.1469 683.903 67.0226 684.273C67.8983 684.643 68.8616 684.739 69.7905 684.548C70.7193 684.357 71.572 683.889 72.2404 683.202C72.9087 682.514 73.3628 681.64 73.545 680.688C73.7271 679.737 73.6293 678.751 73.2637 677.857C72.8982 676.962 72.2815 676.199 71.4916 675.663C70.7018 675.128 69.7745 674.844 68.8271 674.849C68.1997 674.849 67.5784 674.976 66.9991 675.222C66.4197 675.468 65.8936 675.829 65.4509 676.285C65.0083 676.74 64.6579 677.28 64.4198 677.874C64.1816 678.468 64.0605 679.104 64.0634 679.746Z" fill="#0A6D09"/>
<path d="M40.3103 628.677C40.3146 629.641 40.5976 630.581 41.1236 631.38C41.6497 632.179 42.3952 632.8 43.266 633.166C44.1368 633.531 45.0939 633.625 46.0165 633.434C46.9392 633.244 47.7859 632.777 48.45 632.095C49.114 631.412 49.5656 630.543 49.7476 629.598C49.9297 628.653 49.8341 627.674 49.4729 626.784C49.1117 625.895 48.5011 625.135 47.7182 624.6C46.9353 624.065 46.0152 623.78 45.0739 623.78C44.4465 623.78 43.8253 623.907 43.2459 624.153C42.6665 624.399 42.1404 624.761 41.6978 625.216C41.2552 625.671 40.9047 626.211 40.6666 626.805C40.4285 627.399 40.3074 628.035 40.3103 628.677Z" fill="#0A6D09"/>
<path d="M46.1181 653.722L23.2786 647.823C23.1408 647.789 23.0109 647.727 22.8966 647.641C22.7823 647.556 22.6859 647.447 22.613 647.323C22.5401 647.199 22.4921 647.061 22.472 646.917C22.4518 646.773 22.4598 646.627 22.4955 646.487C22.5676 646.204 22.7435 645.961 22.9866 645.807C23.2297 645.654 23.5213 645.602 23.8006 645.663L43.9864 650.783V628.521C43.9864 628.226 44.101 627.943 44.305 627.734C44.5089 627.526 44.7856 627.408 45.074 627.408C45.3625 627.408 45.6391 627.526 45.8431 627.734C46.047 627.943 46.1616 628.226 46.1616 628.521L46.1181 653.722Z" fill="#0A6D09"/>
<path d="M56.3851 674.737L40.4409 671.086C40.1524 671.024 39.8998 670.848 39.7387 670.595C39.5776 670.343 39.5211 670.035 39.5817 669.74C39.6422 669.444 39.8149 669.186 40.0617 669.021C40.3085 668.856 40.6092 668.798 40.8977 668.86L54.9494 672.088L60.8225 654.457C60.8544 654.303 60.9179 654.158 61.0087 654.031C61.0994 653.904 61.2155 653.798 61.3491 653.72C61.4827 653.643 61.6309 653.595 61.7839 653.58C61.9369 653.565 62.0913 653.584 62.2367 653.634C62.3822 653.685 62.5156 653.767 62.628 653.874C62.7404 653.981 62.8293 654.112 62.8889 654.257C62.9484 654.402 62.9773 654.558 62.9735 654.715C62.9698 654.873 62.9335 655.027 62.8671 655.169L56.3851 674.737Z" fill="#0A6D09"/>
<path d="M64.5202 695.196L46.6184 687.761C46.4733 687.716 46.3391 687.64 46.2244 687.538C46.1096 687.437 46.0169 687.312 45.952 687.172C45.8872 687.031 45.8518 686.879 45.848 686.724C45.8442 686.569 45.8721 686.414 45.93 686.271C45.9879 686.128 46.0744 685.998 46.1841 685.891C46.2937 685.784 46.4241 685.701 46.5667 685.649C46.7094 685.596 46.8612 685.575 47.0125 685.586C47.1637 685.597 47.311 685.64 47.445 685.713L63.2369 692.391L67.8048 679.479C67.903 679.202 68.1047 678.976 68.3658 678.85C68.6268 678.725 68.9258 678.711 69.1969 678.811C69.3329 678.859 69.4582 678.933 69.5652 679.031C69.6722 679.129 69.7588 679.248 69.8198 679.382C69.8807 679.515 69.9148 679.659 69.9199 679.806C69.925 679.953 69.901 680.099 69.8495 680.236L64.5202 695.196Z" fill="#0A6D09"/>
<path d="M140.435 791.39C140.21 791.389 139.99 791.319 139.804 791.189C139.574 791.012 139.421 790.751 139.377 790.46C139.332 790.169 139.399 789.872 139.565 789.631C162.1 757.797 189.964 723.046 225.855 706.661C225.986 706.602 226.127 706.57 226.271 706.567C226.414 706.565 226.557 706.591 226.69 706.645C226.823 706.698 226.945 706.779 227.048 706.881C227.151 706.983 227.233 707.105 227.29 707.24C227.402 707.509 227.408 707.812 227.307 708.086C227.205 708.36 227.005 708.583 226.746 708.709C191.334 724.849 163.666 759.333 141.326 790.922C141.227 791.069 141.093 791.189 140.938 791.27C140.782 791.352 140.609 791.393 140.435 791.39Z" fill="#0A6D09"/>
<path d="M231.532 709.689C231.144 710.748 230.458 711.666 229.561 712.326C228.664 712.987 227.596 713.36 226.491 713.399C225.387 713.439 224.295 713.142 223.356 712.547C222.416 711.952 221.669 711.085 221.211 710.056C220.752 709.027 220.602 707.882 220.779 706.766C220.955 705.649 221.452 704.611 222.205 703.783C222.958 702.955 223.934 702.375 225.009 702.114C226.085 701.854 227.211 701.925 228.247 702.32C229.635 702.855 230.759 703.93 231.374 705.311C231.99 706.692 232.046 708.265 231.532 709.689Z" fill="#0A6D09"/>
<path d="M198.947 746.421C198.613 747.321 198.025 748.099 197.259 748.658C196.492 749.217 195.581 749.531 194.641 749.56C193.7 749.59 192.772 749.334 191.974 748.824C191.175 748.314 190.542 747.574 190.154 746.697C189.767 745.819 189.642 744.844 189.795 743.893C189.948 742.943 190.373 742.061 191.016 741.357C191.658 740.654 192.49 740.161 193.406 739.941C194.322 739.721 195.282 739.783 196.163 740.121C196.751 740.346 197.29 740.688 197.749 741.126C198.207 741.565 198.576 742.093 198.835 742.678C199.094 743.264 199.237 743.896 199.256 744.538C199.276 745.18 199.17 745.82 198.947 746.421Z" fill="#0A6D09"/>
<path d="M183.982 725.539C183.538 726.752 182.641 727.735 181.488 728.272C180.336 728.808 179.023 728.854 177.837 728.4C176.652 727.945 175.691 727.027 175.167 725.848C174.643 724.668 174.598 723.324 175.042 722.111C175.486 720.897 176.383 719.914 177.536 719.378C178.688 718.841 180.001 718.795 181.187 719.25C182.372 719.705 183.333 720.623 183.857 721.802C184.381 722.982 184.426 724.326 183.982 725.539Z" fill="#0A6D09"/>
<path d="M186.918 760.713C186.701 761.314 186.369 761.866 185.943 762.336C185.516 762.806 185.003 763.185 184.434 763.451C183.864 763.718 183.248 763.867 182.622 763.89C181.996 763.913 181.371 763.809 180.784 763.585C180.197 763.36 179.66 763.019 179.201 762.581C178.743 762.143 178.374 761.617 178.114 761.033C177.59 759.853 177.545 758.509 177.989 757.296C178.434 756.083 179.33 755.099 180.483 754.563C181.635 754.027 182.949 753.981 184.134 754.435C185.317 754.89 186.275 755.807 186.797 756.984C187.319 758.161 187.363 759.503 186.918 760.713Z" fill="#0A6D09"/>
<path d="M168.908 746.332C168.578 747.235 167.995 748.017 167.231 748.581C166.467 749.144 165.557 749.463 164.616 749.497C163.675 749.532 162.745 749.28 161.943 748.774C161.142 748.268 160.505 747.53 160.114 746.653C159.722 745.777 159.593 744.801 159.743 743.85C159.892 742.898 160.314 742.014 160.955 741.308C161.596 740.601 162.427 740.105 163.343 739.882C164.259 739.659 165.219 739.719 166.102 740.054C166.689 740.277 167.228 740.616 167.687 741.053C168.146 741.489 168.517 742.014 168.778 742.597C169.038 743.18 169.184 743.81 169.206 744.451C169.229 745.092 169.127 745.731 168.908 746.332Z" fill="#0A6D09"/>
<path d="M208.649 707.039C208.316 707.94 207.73 708.719 206.965 709.279C206.2 709.839 205.29 710.154 204.35 710.186C203.41 710.218 202.482 709.964 201.683 709.457C200.884 708.949 200.249 708.211 199.859 707.335C199.469 706.46 199.341 705.485 199.491 704.535C199.641 703.585 200.063 702.701 200.702 701.996C201.342 701.291 202.172 700.795 203.087 700.571C204.001 700.348 204.96 700.406 205.843 700.739C206.433 700.962 206.974 701.302 207.435 701.74C207.896 702.178 208.267 702.705 208.528 703.291C208.789 703.877 208.934 704.51 208.955 705.153C208.975 705.796 208.871 706.437 208.649 707.039Z" fill="#0A6D09"/>
<path d="M218.111 731.171H217.959L194.553 728.389L203.145 704.925C203.183 704.773 203.251 704.631 203.346 704.508C203.441 704.385 203.56 704.283 203.696 704.211C203.832 704.138 203.981 704.096 204.134 704.086C204.287 704.077 204.44 704.1 204.583 704.155C204.726 704.211 204.857 704.296 204.965 704.407C205.074 704.517 205.159 704.649 205.214 704.796C205.269 704.942 205.294 705.098 205.286 705.255C205.278 705.411 205.238 705.564 205.168 705.704L197.577 726.519L218.22 728.968C218.362 728.976 218.502 729.014 218.631 729.078C218.759 729.142 218.875 729.231 218.969 729.341C219.064 729.45 219.137 729.578 219.184 729.716C219.231 729.855 219.25 730.001 219.242 730.147C219.233 730.294 219.197 730.437 219.134 730.568C219.072 730.7 218.984 730.818 218.877 730.915C218.77 731.012 218.645 731.087 218.51 731.135C218.375 731.182 218.232 731.202 218.089 731.194L218.111 731.171Z" fill="#0A6D09"/>
<path d="M194.14 746.71H194.032L177.826 744.484L178.435 723.847C178.462 723.558 178.592 723.289 178.801 723.091C179.01 722.894 179.282 722.783 179.566 722.779C179.709 722.784 179.85 722.819 179.98 722.88C180.109 722.942 180.226 723.028 180.323 723.136C180.42 723.243 180.495 723.369 180.545 723.507C180.594 723.644 180.616 723.79 180.611 723.936L180.067 742.547L194.314 744.573C194.457 744.589 194.595 744.635 194.72 744.707C194.844 744.779 194.954 744.876 195.041 744.993C195.128 745.109 195.192 745.242 195.228 745.385C195.264 745.527 195.271 745.675 195.25 745.82C195.194 746.077 195.053 746.306 194.851 746.469C194.649 746.631 194.397 746.716 194.14 746.71Z" fill="#0A6D09"/>
<path d="M163.187 760.669L163.339 744.618C163.35 744.328 163.469 744.054 163.671 743.851C163.874 743.648 164.144 743.532 164.427 743.527C164.569 743.527 164.709 743.556 164.84 743.612C164.971 743.668 165.089 743.75 165.188 743.854C165.288 743.958 165.366 744.081 165.418 744.216C165.47 744.351 165.496 744.495 165.493 744.64L165.362 758.376L182.416 757.886C182.701 757.891 182.974 758.006 183.18 758.208C183.385 758.411 183.509 758.685 183.525 758.977C183.531 759.124 183.508 759.27 183.457 759.408C183.406 759.545 183.328 759.671 183.229 759.777C183.129 759.883 183.01 759.967 182.877 760.025C182.745 760.082 182.603 760.112 182.459 760.112L163.187 760.669Z" fill="#0A6D09"/>
<path d="M231.619 804.168H-23.2707C-23.2707 804.168 41.1804 782.641 42.8118 776.541C44.4432 770.442 44.3561 766.212 52.2303 760.958C60.1046 755.704 70.85 752.387 73.8518 746.577C76.8536 740.766 86.0982 731.394 89.2957 728.656C92.4932 725.918 130.733 745.597 131.19 746.042C131.647 746.488 142.262 767.837 145.894 772.623C149.527 777.41 174.542 771.577 180.523 776.608C186.505 781.639 206.626 794.707 206.626 794.707C206.626 794.707 216.414 793.238 231.619 804.168Z" fill="#263238"/>
<path opacity="0.2" d="M231.619 804.168H-23.2707C-23.2707 804.168 41.1804 782.641 42.8118 776.541C44.4432 770.442 44.3561 766.212 52.2303 760.958C60.1046 755.704 70.85 752.387 73.8518 746.577C76.8536 740.766 86.0982 731.394 89.2957 728.656C92.4932 725.918 130.733 745.597 131.19 746.042C131.647 746.488 142.262 767.837 145.894 772.623C149.527 777.41 174.542 771.577 180.523 776.608C186.505 781.639 206.626 794.707 206.626 794.707C206.626 794.707 216.414 793.238 231.619 804.168Z" fill="white"/>
<path d="M296.266 759.622C296.266 759.622 304.27 759.177 304.966 736.781C305.662 714.386 291.654 708.397 280.8 711.136C280.8 711.136 282.388 695.196 275.362 695.775C268.336 696.354 268.836 706.906 268.836 706.906C268.836 706.906 266.422 684.288 256.829 684.265C247.237 684.243 256.829 710.98 256.829 710.98C256.829 710.98 243.561 704.457 238.688 710.98C233.816 717.503 244.779 725.161 244.779 725.161C244.779 725.161 227.551 730.904 234.751 749.181C234.751 749.181 222.766 751.096 219.394 759.266C219.394 759.266 220.351 742.77 216.044 743.883C211.737 744.996 212.673 759.466 212.673 759.466C212.673 759.466 205.495 743.549 199.252 749.181C193.009 754.814 202.123 768.26 202.123 768.26C202.123 768.26 190.138 762.294 188.202 770.197C186.266 778.1 194.923 781.038 194.923 781.038C194.923 781.038 182.438 778.1 182.438 792.748C182.438 792.748 158.51 790.41 152.703 803.567H295.7L296.266 759.622Z" fill="#263238"/>
<path opacity="0.3" d="M296.266 759.622C296.266 759.622 304.27 759.177 304.966 736.781C305.662 714.386 291.654 708.397 280.8 711.136C280.8 711.136 282.388 695.196 275.362 695.775C268.336 696.354 268.836 706.906 268.836 706.906C268.836 706.906 266.422 684.288 256.829 684.265C247.237 684.243 256.829 710.98 256.829 710.98C256.829 710.98 243.561 704.457 238.688 710.98C233.816 717.503 244.779 725.161 244.779 725.161C244.779 725.161 227.551 730.904 234.751 749.181C234.751 749.181 222.766 751.096 219.394 759.266C219.394 759.266 220.351 742.77 216.044 743.883C211.737 744.996 212.673 759.466 212.673 759.466C212.673 759.466 205.495 743.549 199.252 749.181C193.009 754.814 202.123 768.26 202.123 768.26C202.123 768.26 190.138 762.294 188.202 770.197C186.266 778.1 194.923 781.038 194.923 781.038C194.923 781.038 182.438 778.1 182.438 792.748C182.438 792.748 158.51 790.41 152.703 803.567H295.7L296.266 759.622Z" fill="white"/>
<path d="M254.132 803.723H464.539L461.493 791.679L443.309 784.956L461.493 759.199L449.225 730.815L414.379 732.329L420.991 687.538L412.9 667.814L384.687 664.007L391.365 634.399L380.511 605.569H363.805L313.341 695.575L309.839 684.51L296.483 672.355L282.323 687.538L254.132 803.723Z" fill="#0A6D09"/>
<path opacity="0.2" d="M254.132 803.723H464.539L461.493 791.679L443.309 784.956L461.493 759.199L442.547 762.605L409.92 782.953L418.338 750.918L414.379 732.329L404.982 721.064L373.811 753.055L392.105 742.903L396.564 750.406L386.667 786.537L354.017 791.501L331.765 781.684L332.265 745.642L348.579 736.225L363.805 753.055L380.511 674.47L359.324 715.989L346.6 704.635L323.847 713.963L313.341 695.575L309.839 684.51L311.644 742.414L305.554 775.918L296.483 765.677L284.28 762.605L254.132 803.723Z" fill="black"/>
<path d="M246.236 803.211C246.236 803.211 235.665 776.875 237.383 771.421C239.101 765.967 247.063 785.29 247.063 785.29C247.063 785.29 242.712 740.143 249.651 737.138C256.59 734.132 254.654 775.829 254.654 775.829C254.654 775.829 265.726 713.496 276.276 714.631C286.825 715.766 263.398 776.586 263.398 776.586C263.398 776.586 278.124 748.402 285.15 751.964C292.176 755.526 269.076 783.932 269.076 783.932C269.076 783.932 280.887 775.829 282.54 780.237C284.193 784.645 260.027 800.584 246.236 803.211Z" fill="#263238"/>
<path opacity="0.2" d="M246.236 803.211C246.236 803.211 235.665 776.875 237.383 771.421C239.101 765.967 247.063 785.29 247.063 785.29C247.063 785.29 242.712 740.143 249.651 737.138C256.59 734.132 254.654 775.829 254.654 775.829C254.654 775.829 265.726 713.496 276.276 714.631C286.825 715.766 263.398 776.586 263.398 776.586C263.398 776.586 278.124 748.402 285.15 751.964C292.176 755.526 269.076 783.932 269.076 783.932C269.076 783.932 280.887 775.829 282.54 780.237C284.193 784.645 260.027 800.584 246.236 803.211Z" fill="white"/>
<path d="M246.236 803.211C246.236 803.211 220.96 805.682 217.349 802.788C213.739 799.894 230.553 799.048 230.553 799.048C230.553 799.048 195.184 789.765 194.88 783.465C194.575 777.165 225.55 790.433 225.55 790.433C225.55 790.433 181.393 763.963 185.331 755.971C189.268 747.979 228.486 783.621 228.486 783.621C228.486 783.621 211.346 764.03 215.979 759.533C220.612 755.036 235.556 781.283 235.556 781.283C235.556 781.283 232.75 769.64 236.556 769.573C240.363 769.507 248.063 791.457 246.236 803.211Z" fill="#263238"/>
<path opacity="0.2" d="M246.236 803.211C246.236 803.211 220.96 805.682 217.349 802.788C213.739 799.894 230.553 799.048 230.553 799.048C230.553 799.048 195.184 789.765 194.88 783.465C194.575 777.165 225.55 790.433 225.55 790.433C225.55 790.433 181.393 763.963 185.331 755.971C189.268 747.979 228.486 783.621 228.486 783.621C228.486 783.621 211.346 764.03 215.979 759.533C220.612 755.036 235.556 781.283 235.556 781.283C235.556 781.283 232.75 769.64 236.556 769.573C240.363 769.507 248.063 791.457 246.236 803.211Z" fill="white"/>
<path d="M246.236 803.211C246.236 803.211 211.977 784.711 210.128 778.723C208.279 772.734 227.529 784.956 227.529 784.956C227.529 784.956 195.402 746.955 199.839 739.676C204.276 732.396 228.486 771.443 228.486 771.443C228.486 771.443 199.622 707.707 209.932 701.919C220.242 696.131 236.883 766.479 236.883 766.479C236.883 766.479 232.641 731.35 241.233 730.058C249.825 728.767 246.628 769.484 246.628 769.484C246.628 769.484 252.261 754.435 256.525 757.352C260.788 760.268 257.112 791.746 246.236 803.211Z" fill="#263238"/>
<path opacity="0.4" d="M246.236 803.211C246.236 803.211 211.977 784.711 210.128 778.723C208.279 772.734 227.529 784.956 227.529 784.956C227.529 784.956 195.402 746.955 199.839 739.676C204.276 732.396 228.486 771.443 228.486 771.443C228.486 771.443 199.622 707.707 209.932 701.919C220.242 696.131 236.883 766.479 236.883 766.479C236.883 766.479 232.641 731.35 241.233 730.058C249.825 728.767 246.628 769.484 246.628 769.484C246.628 769.484 252.261 754.435 256.525 757.352C260.788 760.268 257.112 791.746 246.236 803.211Z" fill="white"/>
</svg>
